<mxfile host="app.diagrams.net" modified="2024-07-04T13:56:17.466Z" agent="Mozilla/5.0 (Linux; Android 10; K) AppleWebKit/537.36 (KHTML, like Gecko) Chrome/125.0.0.0 Safari/537.36 EdgA/125.0.0.0" version="24.6.4" etag="qaUFfwLg7F8QwpdOQItF" type="github">
  <diagram name="第 1 页" id="VT40_x5Qp-KO5deUJ-00">
    <mxGraphModel>
      <root>
        <mxCell id="0" />
        <mxCell id="1" parent="0" />
      </root>
    </mxGraphModel>
  </diagram>
</mxfile>
